<svg xmlns="http://www.w3.org/2000/svg" fill="#93dbe9" viewBox="0 0 100 100">
  <rect width="5" height="13" x="48" y="25" opacity=".1" rx="2.5" ry="3.12"/>
  <rect width="5" height="13" x="48" y="25" opacity=".2" rx="2.5" ry="3.12" transform="rotate(32.7272 50 50.0001)"/>
  <rect width="5" height="13" x="48" y="25" opacity=".3" rx="2.5" ry="3.12" transform="rotate(65.4545 50 50)"/>
  <rect width="5" height="13" x="48" y="25" opacity=".4" rx="2.5" ry="3.12" transform="rotate(98.1818 50.0001 50)"/>
  <rect width="5" height="13" x="48" y="25" opacity=".5" rx="2.5" ry="3.12" transform="rotate(130.9091 50.0002 50.0001)"/>
  <rect width="5" height="13" x="48" y="25" opacity=".55" rx="2.5" ry="3.12" transform="rotate(163.6364 49.9999 50)"/>
  <rect width="5" height="13" x="48" y="25" opacity=".6" rx="2.5" ry="3.12" transform="rotate(-163.6364 50 49.9999)"/>
  <rect width="5" height="13" x="48" y="25" opacity=".7" rx="2.5" ry="3.12" transform="rotate(-130.9091 50.0001 50.0002)"/>
  <rect width="5" height="13" x="48" y="25" opacity=".8" rx="2.5" ry="3.12" transform="rotate(-98.1818 50 50.0001)"/>
  <rect width="5" height="13" x="48" y="25" opacity=".9" rx="2.5" ry="3.12" transform="rotate(-65.4545 50 50)"/>
  <rect width="5" height="13" x="48" y="25" rx="2.5" ry="3.12" transform="rotate(-32.7272 50.0001 50)"/>
</svg>